<svg width="100" height="96" viewBox="0 0 100 96" fill="none" xmlns="http://www.w3.org/2000/svg">
<path d="M4.16667 4.16669H20.8333L32 59.9584C32.381 61.8767 33.4246 63.5999 34.9481 64.8263C36.4716 66.0527 38.3779 66.7042 40.3333 66.6667H80.8333C82.7888 66.7042 84.6951 66.0527 86.2186 64.8263C87.7421 63.5999 88.7857 61.8767 89.1667 59.9584L95.8333 25H25M41.6667 87.5C41.6667 89.8012 39.8012 91.6667 37.5 91.6667C35.1988 91.6667 33.3333 89.8012 33.3333 87.5C33.3333 85.1988 35.1988 83.3334 37.5 83.3334C39.8012 83.3334 41.6667 85.1988 41.6667 87.5ZM87.5 87.5C87.5 89.8012 85.6345 91.6667 83.3333 91.6667C81.0322 91.6667 79.1667 89.8012 79.1667 87.5C79.1667 85.1988 81.0322 83.3334 83.3333 83.3334C85.6345 83.3334 87.5 85.1988 87.5 87.5Z" stroke="#F3F3F3" stroke-width="7" stroke-linecap="round" stroke-linejoin="round"/>
</svg>
