<svg width="29" height="29" viewBox="0 0 29 29" fill="none" xmlns="http://www.w3.org/2000/svg">
<g clip-path="url(#clip0_8_106)">
<path d="M1.20833 1.20831H6.04166L9.27999 17.3879C9.39049 17.9442 9.69313 18.4439 10.1349 18.7996C10.5768 19.1552 11.1296 19.3442 11.6967 19.3333H23.4417C24.0087 19.3442 24.5616 19.1552 25.0034 18.7996C25.4452 18.4439 25.7478 17.9442 25.8583 17.3879L27.7917 7.24998H7.24999M12.0833 25.375C12.0833 26.0423 11.5423 26.5833 10.875 26.5833C10.2077 26.5833 9.66666 26.0423 9.66666 25.375C9.66666 24.7076 10.2077 24.1666 10.875 24.1666C11.5423 24.1666 12.0833 24.7076 12.0833 25.375ZM25.375 25.375C25.375 26.0423 24.834 26.5833 24.1667 26.5833C23.4993 26.5833 22.9583 26.0423 22.9583 25.375C22.9583 24.7076 23.4993 24.1666 24.1667 24.1666C24.834 24.1666 25.375 24.7076 25.375 25.375Z" stroke="#F3F3F3" stroke-width="3" stroke-linecap="round" stroke-linejoin="round"/>
</g>
<defs>
<clipPath id="clip0_8_106">
<rect width="29" height="29" fill="white"/>
</clipPath>
</defs>
</svg>
